<svg width="32" height="32" viewBox="0 0 32 32" fill="none" xmlns="http://www.w3.org/2000/svg">
<path d="M14.6716 22.6512C12.1636 22.6512 10.783 22.7811 10.0039 22.002C9.22479 21.2228 9.35145 20.504 9.35145 17.9961" stroke="#19110B" stroke-linecap="round"/>
<path d="M22.6482 17.9961C22.6482 20.504 22.7791 21.2228 22 22.002C21.2209 22.7811 19.836 22.6512 17.3281 22.6512" stroke="#19110B" stroke-linecap="round"/>
<path d="M17.3281 9.35169C19.836 9.35169 21.2209 9.22284 22 10.002C22.7791 10.7811 22.6482 11.4989 22.6482 14.0068" stroke="#19110B" stroke-linecap="round"/>
<path d="M14.6716 9.35171C12.1636 9.35171 10.783 9.22284 10.0039 10.002C9.22479 10.7811 9.35145 11.4989 9.35145 14.0068" stroke="#19110B" stroke-linecap="round"/>
<path d="M9.35156 16H22.6518" stroke="#19110B" stroke-linecap="round"/>
</svg>
