<svg width="20" height="20" viewBox="0 0 20 20" fill="none" xmlns="http://www.w3.org/2000/svg">
<path d="M13.3884 3.38422C13.9289 2.87193 14.8156 2.87193 15.356 3.38422C15.8813 3.88214 15.8813 4.67779 15.356 5.17571L7.04446 13.0544L4.44613 13.6701L5.08238 11.2577L13.3884 3.38422Z" stroke="#19110B" stroke-linecap="round" stroke-linejoin="round"/>
<mask id="path-2-inside-1_766_61289" fill="white">
<path fill-rule="evenodd" clip-rule="evenodd" d="M5.625 16.6276H14.375H5.625Z"/>
</mask>
<path d="M5.625 16.1276C5.34886 16.1276 5.125 16.3515 5.125 16.6276C5.125 16.9037 5.34886 17.1276 5.625 17.1276V16.1276ZM14.375 17.1276C14.6511 17.1276 14.875 16.9037 14.875 16.6276C14.875 16.3515 14.6511 16.1276 14.375 16.1276V17.1276ZM5.625 17.1276H14.375V16.1276H5.625V17.1276Z" fill="#19110B" stroke="19110B"/>
</svg>
