<svg width="16" height="16" viewBox="0 0 16 16" fill="none" xmlns="http://www.w3.org/2000/svg">
<path d="M3.33203 3.32569C3.33203 2.67825 3.33203 2.35453 3.46702 2.17608C3.58463 2.02062 3.76438 1.92442 3.95896 1.9128C4.18232 1.89947 4.45167 2.07903 4.99038 2.43817L12.0008 7.11175C12.4459 7.4085 12.6684 7.55688 12.746 7.74389C12.8138 7.90739 12.8138 8.09115 12.746 8.25465C12.6684 8.44167 12.4459 8.59004 12.0008 8.88679L4.99038 13.5604C4.45167 13.9195 4.18232 14.0991 3.95896 14.0857C3.76438 14.0741 3.58463 13.9779 3.46702 13.8225C3.33203 13.644 3.33203 13.3203 3.33203 12.6729V3.32569Z" stroke="#19110B" stroke-linecap="round" stroke-linejoin="round"/>
</svg>
