<svg width="18" height="18" viewBox="0 0 18 18" fill="none" xmlns="http://www.w3.org/2000/svg">
<path d="M1 12.554L1.5 12.554L1 12.554ZM1 5.44351L0.5 5.44351L1 5.44351ZM1.88882 4.55469L1.88882 5.05469L1.88882 4.55469ZM16.1099 4.55469V5.05469V4.55469ZM16.9987 5.4435H17.4987V5.4435L16.9987 5.4435ZM16.9987 12.554H16.4987H16.9987ZM3.66645 13.9429C3.94259 13.9429 4.16645 13.719 4.16645 13.4429C4.16645 13.1667 3.94259 12.9429 3.66645 12.9429V13.9429ZM1.88882 13.4429V12.9429V13.4429ZM16.1099 13.4429V13.9429V13.4429ZM14.3322 12.9429C14.0561 12.9429 13.8322 13.1667 13.8322 13.4429C13.8322 13.719 14.0561 13.9429 14.3322 13.9429V12.9429ZM1.5 12.554L1.5 5.44351L0.5 5.44351L0.500001 12.554L1.5 12.554ZM1.88882 5.05469L16.1099 5.05469V4.05469L1.88882 4.05469L1.88882 5.05469ZM16.4987 5.4435V12.554H17.4987V5.4435H16.4987ZM3.66645 12.9429H1.88882V13.9429H3.66645V12.9429ZM16.1099 12.9429H14.3322V13.9429H16.1099V12.9429ZM16.1099 5.05469C16.3246 5.05469 16.4987 5.22877 16.4987 5.4435L17.4987 5.4435C17.4987 4.67648 16.8769 4.05469 16.1099 4.05469V5.05469ZM1.5 5.44351C1.5 5.22877 1.67408 5.05469 1.88882 5.05469L1.88882 4.05469C1.12179 4.05469 0.5 4.67648 0.5 5.44351L1.5 5.44351ZM0.500001 12.554C0.500001 13.3211 1.1218 13.9429 1.88882 13.9429L1.88882 12.9429C1.67408 12.9429 1.5 12.7688 1.5 12.554L0.500001 12.554ZM16.4987 12.554C16.4987 12.7688 16.3246 12.9429 16.1099 12.9429V13.9429C16.8769 13.9429 17.4987 13.3211 17.4987 12.554H16.4987Z" fill="#19110B"/>
<path d="M13.441 17.0009V16.5009V17.0009ZM4.55288 17.0009L4.55288 17.5009L4.55288 17.0009ZM3.66406 16.1121H3.16406H3.66406ZM3.66406 12.5568L3.16406 12.5568L3.66406 12.5568ZM13.441 11.668V12.168V11.668ZM14.3299 12.5568H14.8299V12.5568L14.3299 12.5568ZM14.3299 16.1121H13.8299H14.3299ZM13.441 16.5009L4.55288 16.5009L4.55288 17.5009L13.441 17.5009V16.5009ZM4.16406 16.1121L4.16406 12.5568L3.16406 12.5568L3.16406 16.1121H4.16406ZM4.55288 12.168L13.441 12.168V11.168L4.55288 11.168L4.55288 12.168ZM13.8299 12.5568V16.1121H14.8299V12.5568H13.8299ZM13.441 12.168C13.6558 12.168 13.8299 12.342 13.8299 12.5568L14.8299 12.5568C14.8299 11.7898 14.2081 11.168 13.441 11.168V12.168ZM4.16406 12.5568C4.16406 12.342 4.33814 12.168 4.55288 12.168L4.55288 11.168C3.78586 11.168 3.16406 11.7898 3.16406 12.5568L4.16406 12.5568ZM4.55288 16.5009C4.33814 16.5009 4.16406 16.3268 4.16406 16.1121H3.16406C3.16406 16.8791 3.78586 17.5009 4.55288 17.5009L4.55288 16.5009ZM13.441 17.5009C14.2081 17.5009 14.8299 16.8791 14.8299 16.1121H13.8299C13.8299 16.3268 13.6558 16.5009 13.441 16.5009V17.5009Z" fill="#19110B"/>
<path d="M7.22266 7.60938C6.94651 7.60938 6.72266 7.83323 6.72266 8.10938C6.72266 8.38552 6.94651 8.60938 7.22266 8.60938V7.60938ZM10.7779 8.60938C11.0541 8.60938 11.2779 8.38552 11.2779 8.10938C11.2779 7.83323 11.0541 7.60938 10.7779 7.60938V8.60938ZM7.22266 8.60938H10.7779V7.60938H7.22266V8.60938Z" fill="#19110B"/>
<path d="M13.441 4.55527V4.05527V4.55527ZM4.55288 4.55527V5.05527V4.55527ZM3.66406 3.66645H3.16406H3.66406ZM3.66406 1.88882L4.16406 1.88882L3.66406 1.88882ZM4.55288 1L4.55288 1.5L4.55288 1ZM13.441 1V1.5V1ZM14.3299 1.88882H14.8299V1.88882L14.3299 1.88882ZM14.3299 3.66645H13.8299H14.3299ZM13.441 4.05527L4.55288 4.05527L4.55288 5.05527L13.441 5.05527V4.05527ZM4.16406 3.66645L4.16406 1.88882L3.16406 1.88882L3.16406 3.66645H4.16406ZM4.55288 1.5L13.441 1.5V0.5L4.55288 0.500001L4.55288 1.5ZM13.8299 1.88882V3.66645H14.8299V1.88882H13.8299ZM13.441 1.5C13.6558 1.5 13.8299 1.67408 13.8299 1.88882L14.8299 1.88882C14.8299 1.12179 14.2081 0.5 13.441 0.5V1.5ZM4.16406 1.88882C4.16406 1.67408 4.33814 1.5 4.55288 1.5L4.55288 0.500001C3.78586 0.500001 3.16406 1.12179 3.16406 1.88882L4.16406 1.88882ZM4.55288 4.05527C4.33814 4.05527 4.16406 3.88119 4.16406 3.66645H3.16406C3.16406 4.43347 3.78586 5.05527 4.55288 5.05527L4.55288 4.05527ZM13.441 5.05527C14.2081 5.05527 14.8299 4.43347 14.8299 3.66645L13.8299 3.66645C13.8299 3.88119 13.6558 4.05527 13.441 4.05527V5.05527Z" fill="#19110B"/>
</svg>
