<svg width="32" height="32" viewBox="0 0 32 32" fill="none" xmlns="http://www.w3.org/2000/svg">
<rect width="32" height="32" rx="4" fill="#0E77D3" fill-opacity="0.08"/>
<path d="M7.66699 20.1667V20.0415C7.66699 19.7778 7.66699 19.6459 7.68716 19.5174C7.70508 19.4033 7.73479 19.2914 7.77584 19.1835C7.82206 19.062 7.88749 18.9475 8.01834 18.7185L11.0003 13.5M7.66699 20.1667C7.66699 22.0076 9.15938 23.5 11.0003 23.5C12.8413 23.5 14.3337 22.0076 14.3337 20.1667M7.66699 20.1667V20C7.66699 19.7666 7.66699 19.65 7.71241 19.5608C7.75235 19.4824 7.8161 19.4187 7.8945 19.3787C7.98363 19.3333 8.1003 19.3333 8.33366 19.3333H13.667C13.9003 19.3333 14.017 19.3333 14.1062 19.3787C14.1846 19.4187 14.2483 19.4824 14.2882 19.5608C14.3337 19.65 14.3337 19.7666 14.3337 20V20.1667M11.0003 13.5L13.9823 18.7185C14.1132 18.9475 14.1786 19.062 14.2248 19.1835C14.2659 19.2914 14.2956 19.4033 14.3135 19.5174C14.3337 19.6459 14.3337 19.7778 14.3337 20.0415V20.1667M11.0003 13.5L21.0003 11.8333M17.667 18.5V18.3748C17.667 18.1111 17.667 17.9792 17.6872 17.8507C17.7051 17.7367 17.7348 17.6248 17.7758 17.5168C17.8221 17.3953 17.8875 17.2808 18.0183 17.0518L21.0003 11.8333M17.667 18.5C17.667 20.3409 19.1594 21.8333 21.0003 21.8333C22.8413 21.8333 24.3337 20.3409 24.3337 18.5M17.667 18.5V18.3333C17.667 18.1 17.667 17.9833 17.7124 17.8942C17.7524 17.8158 17.8161 17.752 17.8945 17.7121C17.9836 17.6667 18.1003 17.6667 18.3337 17.6667H23.667C23.9003 17.6667 24.017 17.6667 24.1062 17.7121C24.1846 17.752 24.2483 17.8158 24.2882 17.8942C24.3337 17.9833 24.3337 18.1 24.3337 18.3333V18.5M21.0003 11.8333L23.9823 17.0518C24.1132 17.2808 24.1786 17.3953 24.2248 17.5168C24.2659 17.6248 24.2956 17.7367 24.3135 17.8507C24.3337 17.9792 24.3337 18.1111 24.3337 18.3748V18.5M16.0003 8.5V12.6667" stroke="#1677FF" stroke-linecap="round" stroke-linejoin="round"/>
</svg>
