<svg width="32" height="32" viewBox="0 0 32 32" fill="none" xmlns="http://www.w3.org/2000/svg">
<rect width="32" height="32" rx="4" fill="#FF4D4F" fill-opacity="0.1"/>
<path d="M24.3337 13.5H7.66699M17.667 20.5833L19.7503 18.5L17.667 16.4167M14.3337 16.4167L12.2503 18.5L14.3337 20.5833M7.66699 12.5L7.66699 19.5C7.66699 20.9001 7.66699 21.6002 7.93948 22.135C8.17916 22.6054 8.56161 22.9878 9.03202 23.2275C9.56679 23.5 10.2669 23.5 11.667 23.5H20.3337C21.7338 23.5 22.4339 23.5 22.9686 23.2275C23.439 22.9878 23.8215 22.6054 24.0612 22.135C24.3337 21.6002 24.3337 20.9001 24.3337 19.5V12.5C24.3337 11.0999 24.3337 10.3998 24.0612 9.86502C23.8215 9.39462 23.439 9.01217 22.9686 8.77248C22.4339 8.5 21.7338 8.5 20.3337 8.5L11.667 8.5C10.2669 8.5 9.5668 8.5 9.03202 8.77248C8.56161 9.01217 8.17916 9.39462 7.93948 9.86502C7.66699 10.3998 7.66699 11.0999 7.66699 12.5Z" stroke="#EA1B22" stroke-linecap="round" stroke-linejoin="round"/>
</svg>
