<svg width="32" height="32" viewBox="0 0 32 32" fill="none" xmlns="http://www.w3.org/2000/svg">
<rect width="32" height="32" rx="4" fill="#0E77D3" fill-opacity="0.08"/>
<path d="M15.167 9.74984H21.2503C22.1837 9.74984 22.6505 9.74984 23.007 9.93149C23.3206 10.0913 23.5755 10.3462 23.7353 10.6599C23.917 11.0164 23.917 11.4831 23.917 12.4165V13.4998C23.917 14.2764 23.917 14.6647 23.7901 14.971C23.621 15.3794 23.2965 15.7038 22.8881 15.873C22.5818 15.9998 22.1936 15.9998 21.417 15.9998M16.8337 22.2498H10.7503C9.8169 22.2498 9.35019 22.2498 8.99367 22.0682C8.68007 21.9084 8.4251 21.6534 8.26531 21.3398C8.08366 20.9833 8.08366 20.5166 8.08366 19.5832V18.4998C8.08366 17.7233 8.08366 17.335 8.21053 17.0287C8.37968 16.6203 8.70414 16.2959 9.11252 16.1267C9.4188 15.9998 9.80709 15.9998 10.5837 15.9998M14.5837 18.0832H17.417C17.6503 18.0832 17.767 18.0832 17.8562 18.0378C17.9346 17.9978 17.9983 17.9341 18.0382 17.8557C18.0837 17.7665 18.0837 17.6499 18.0837 17.4165V14.5832C18.0837 14.3498 18.0837 14.2331 18.0382 14.144C17.9983 14.0656 17.9346 14.0019 17.8562 13.9619C17.767 13.9165 17.6503 13.9165 17.417 13.9165H14.5837C14.3503 13.9165 14.2336 13.9165 14.1445 13.9619C14.0661 14.0019 14.0024 14.0656 13.9624 14.144C13.917 14.2331 13.917 14.3498 13.917 14.5832V17.4165C13.917 17.6499 13.917 17.7665 13.9624 17.8557C14.0024 17.9341 14.0661 17.9978 14.1445 18.0378C14.2336 18.0832 14.3503 18.0832 14.5837 18.0832ZM20.8337 24.3332H23.667C23.9003 24.3332 24.017 24.3332 24.1062 24.2878C24.1846 24.2478 24.2483 24.1841 24.2882 24.1057C24.3337 24.0165 24.3337 23.8999 24.3337 23.6665V20.8332C24.3337 20.5998 24.3337 20.4831 24.2882 20.394C24.2483 20.3156 24.1846 20.2519 24.1062 20.2119C24.017 20.1665 23.9003 20.1665 23.667 20.1665H20.8337C20.6003 20.1665 20.4836 20.1665 20.3945 20.2119C20.3161 20.2519 20.2524 20.3156 20.2124 20.394C20.167 20.4831 20.167 20.5998 20.167 20.8332V23.6665C20.167 23.8999 20.167 24.0165 20.2124 24.1057C20.2524 24.1841 20.3161 24.2478 20.3945 24.2878C20.4836 24.3332 20.6003 24.3332 20.8337 24.3332ZM8.33366 11.8332H11.167C11.4003 11.8332 11.517 11.8332 11.6062 11.7878C11.6846 11.7478 11.7483 11.6841 11.7882 11.6057C11.8337 11.5165 11.8337 11.3999 11.8337 11.1665V8.33317C11.8337 8.09982 11.8337 7.98314 11.7882 7.89401C11.7483 7.81561 11.6846 7.75187 11.6062 7.71192C11.517 7.6665 11.4003 7.6665 11.167 7.6665H8.33366C8.1003 7.6665 7.98363 7.6665 7.8945 7.71192C7.8161 7.75187 7.75235 7.81561 7.71241 7.89401C7.66699 7.98314 7.66699 8.09982 7.66699 8.33317V11.1665C7.66699 11.3999 7.66699 11.5165 7.71241 11.6057C7.75235 11.6841 7.8161 11.7478 7.8945 11.7878C7.98363 11.8332 8.1003 11.8332 8.33366 11.8332Z" stroke="#1677FF" stroke-linecap="round" stroke-linejoin="round"/>
</svg>
