<svg width="20" height="20" viewBox="0 0 20 20" fill="none" xmlns="http://www.w3.org/2000/svg">
<path d="M13.7891 2.8125H12.6953C12.6094 2.8125 12.5391 2.88281 12.5391 2.96875V4.0625C12.5391 4.14844 12.6094 4.21875 12.6953 4.21875H13.7891C13.875 4.21875 13.9453 4.14844 13.9453 4.0625V2.96875C13.9453 2.88281 13.875 2.8125 13.7891 2.8125ZM4.0625 2.8125H2.96875C2.88281 2.8125 2.8125 2.88281 2.8125 2.96875V4.0625C2.8125 4.14844 2.88281 4.21875 2.96875 4.21875H4.0625C4.14844 4.21875 4.21875 4.14844 4.21875 4.0625V2.96875C4.21875 2.88281 4.14844 2.8125 4.0625 2.8125ZM10.5469 2.8125H9.45312C9.36719 2.8125 9.29688 2.88281 9.29688 2.96875V4.0625C9.29688 4.14844 9.36719 4.21875 9.45312 4.21875H10.5469C10.6328 4.21875 10.7031 4.14844 10.7031 4.0625V2.96875C10.7031 2.88281 10.6328 2.8125 10.5469 2.8125ZM7.30469 2.8125H6.21094C6.125 2.8125 6.05469 2.88281 6.05469 2.96875V4.0625C6.05469 4.14844 6.125 4.21875 6.21094 4.21875H7.30469C7.39062 4.21875 7.46094 4.14844 7.46094 4.0625V2.96875C7.46094 2.88281 7.39062 2.8125 7.30469 2.8125ZM10.5469 6.05469H9.45312C9.36719 6.05469 9.29688 6.125 9.29688 6.21094V7.30469C9.29688 7.39062 9.36719 7.46094 9.45312 7.46094H10.5469C10.6328 7.46094 10.7031 7.39062 10.7031 7.30469V6.21094C10.7031 6.125 10.6328 6.05469 10.5469 6.05469ZM4.0625 6.05469H2.96875C2.88281 6.05469 2.8125 6.125 2.8125 6.21094V7.30469C2.8125 7.39062 2.88281 7.46094 2.96875 7.46094H4.0625C4.14844 7.46094 4.21875 7.39062 4.21875 7.30469V6.21094C4.21875 6.125 4.14844 6.05469 4.0625 6.05469ZM4.0625 12.5391H2.96875C2.88281 12.5391 2.8125 12.6094 2.8125 12.6953V13.7891C2.8125 13.875 2.88281 13.9453 2.96875 13.9453H4.0625C4.14844 13.9453 4.21875 13.875 4.21875 13.7891V12.6953C4.21875 12.6094 4.14844 12.5391 4.0625 12.5391ZM10.5469 12.5391H9.45312C9.36719 12.5391 9.29688 12.6094 9.29688 12.6953V13.7891C9.29688 13.875 9.36719 13.9453 9.45312 13.9453H10.5469C10.6328 13.9453 10.7031 13.875 10.7031 13.7891V12.6953C10.7031 12.6094 10.6328 12.5391 10.5469 12.5391ZM10.5469 15.7812H9.45312C9.36719 15.7812 9.29688 15.8516 9.29688 15.9375V17.0312C9.29688 17.1172 9.36719 17.1875 9.45312 17.1875H10.5469C10.6328 17.1875 10.7031 17.1172 10.7031 17.0312V15.9375C10.7031 15.8516 10.6328 15.7812 10.5469 15.7812ZM10.5469 9.29688H9.45312C9.36719 9.29688 9.29688 9.36719 9.29688 9.45312V10.5469C9.29688 10.6328 9.36719 10.7031 9.45312 10.7031H10.5469C10.6328 10.7031 10.7031 10.6328 10.7031 10.5469V9.45312C10.7031 9.36719 10.6328 9.29688 10.5469 9.29688ZM4.0625 15.7812H2.96875C2.88281 15.7812 2.8125 15.8516 2.8125 15.9375V17.0312C2.8125 17.1172 2.88281 17.1875 2.96875 17.1875H4.0625C4.14844 17.1875 4.21875 17.1172 4.21875 17.0312V15.9375C4.21875 15.8516 4.14844 15.7812 4.0625 15.7812ZM4.0625 9.29688H2.96875C2.88281 9.29688 2.8125 9.36719 2.8125 9.45312V10.5469C2.8125 10.6328 2.88281 10.7031 2.96875 10.7031H4.0625C4.14844 10.7031 4.21875 10.6328 4.21875 10.5469V9.45312C4.21875 9.36719 4.14844 9.29688 4.0625 9.29688ZM13.7891 15.7812H12.6953C12.6094 15.7812 12.5391 15.8516 12.5391 15.9375V17.0312C12.5391 17.1172 12.6094 17.1875 12.6953 17.1875H13.7891C13.875 17.1875 13.9453 17.1172 13.9453 17.0312V15.9375C13.9453 15.8516 13.875 15.7812 13.7891 15.7812ZM13.7891 9.29688H12.6953C12.6094 9.29688 12.5391 9.36719 12.5391 9.45312V10.5469C12.5391 10.6328 12.6094 10.7031 12.6953 10.7031H13.7891C13.875 10.7031 13.9453 10.6328 13.9453 10.5469V9.45312C13.9453 9.36719 13.875 9.29688 13.7891 9.29688ZM7.30469 15.7812H6.21094C6.125 15.7812 6.05469 15.8516 6.05469 15.9375V17.0312C6.05469 17.1172 6.125 17.1875 6.21094 17.1875H7.30469C7.39062 17.1875 7.46094 17.1172 7.46094 17.0312V15.9375C7.46094 15.8516 7.39062 15.7812 7.30469 15.7812ZM7.30469 9.29688H6.21094C6.125 9.29688 6.05469 9.36719 6.05469 9.45312V10.5469C6.05469 10.6328 6.125 10.7031 6.21094 10.7031H7.30469C7.39062 10.7031 7.46094 10.6328 7.46094 10.5469V9.45312C7.46094 9.36719 7.39062 9.29688 7.30469 9.29688Z" fill="#19110B"/>
<path d="M15.9688 2.8125H17.0625C17.1484 2.8125 17.2188 2.88281 17.2188 2.96875V4.0625C17.2188 4.14844 17.1484 4.21875 17.0625 4.21875H15.9688C15.8828 4.21875 15.8125 4.14844 15.8125 4.0625V2.96875C15.8125 2.88281 15.8828 2.8125 15.9688 2.8125Z" fill="#19110B"/>
<path d="M15.9688 6.05469H17.0625C17.1484 6.05469 17.2188 6.125 17.2188 6.21094V7.30469C17.2188 7.39062 17.1484 7.46094 17.0625 7.46094H15.9688C15.8828 7.46094 15.8125 7.39062 15.8125 7.30469V6.21094C15.8125 6.125 15.8828 6.05469 15.9688 6.05469Z" fill="#19110B"/>
<path d="M15.9688 12.5391H17.0625C17.1484 12.5391 17.2188 12.6094 17.2188 12.6953V13.7891C17.2188 13.875 17.1484 13.9453 17.0625 13.9453H15.9688C15.8828 13.9453 15.8125 13.875 15.8125 13.7891V12.6953C15.8125 12.6094 15.8828 12.5391 15.9688 12.5391Z" fill="#19110B"/>
<path d="M15.9688 15.7812H17.0625C17.1484 15.7812 17.2188 15.8516 17.2188 15.9375V17.0312C17.2188 17.1172 17.1484 17.1875 17.0625 17.1875H15.9688C15.8828 17.1875 15.8125 17.1172 15.8125 17.0312V15.9375C15.8125 15.8516 15.8828 15.7812 15.9688 15.7812Z" fill="#19110B"/>
<path d="M15.9688 9.29688H17.0625C17.1484 9.29688 17.2188 9.36719 17.2188 9.45312V10.5469C17.2188 10.6328 17.1484 10.7031 17.0625 10.7031H15.9688C15.8828 10.7031 15.8125 10.6328 15.8125 10.5469V9.45312C15.8125 9.36719 15.8828 9.29688 15.9688 9.29688Z" fill="#19110B"/>
</svg>
