<svg width="1840" height="64" viewBox="0 0 1840 64" fill="none" xmlns="http://www.w3.org/2000/svg">
<mask id="path-1-inside-1_412_41773" fill="white">
<path d="M0 0H1840V64H0V0Z"/>
</mask>
<path d="M0 0H1840V64H0V0Z" fill="white"/>
<path d="M1840 63H0V65H1840V63Z" fill="#E9E9EE" mask="url(#path-1-inside-1_412_41773)"/>
<path d="M787.492 29.6695C787.374 27.8802 785.97 26.4353 784.257 26.3393C783.159 26.2777 782.167 26.7566 781.5 27.5439C780.833 26.7566 779.841 26.2777 778.743 26.3393C777.03 26.4355 775.626 27.8802 775.508 29.6695C775.435 30.7907 775.855 31.8104 776.563 32.5175L781.5 37.6673L786.438 32.5175C787.145 31.8104 787.565 30.7907 787.492 29.6695" stroke="#19110B"/>
<path d="M809.578 24.95V38H807.742V32.078H800.884V38H799.048V24.95H800.884V30.494H807.742V24.95H809.578ZM819.039 33.338C818.295 33.41 817.623 33.5 817.023 33.608C816.423 33.704 815.913 33.83 815.493 33.986C815.073 34.13 814.749 34.322 814.521 34.562C814.293 34.79 814.179 35.072 814.179 35.408C814.179 35.864 814.341 36.236 814.665 36.524C815.001 36.8 815.463 36.938 816.051 36.938C816.435 36.938 816.807 36.89 817.167 36.794C817.527 36.686 817.845 36.512 818.121 36.272C818.397 36.02 818.619 35.684 818.787 35.264C818.955 34.844 819.039 34.31 819.039 33.662V33.338ZM815.691 38.234C815.235 38.234 814.803 38.168 814.395 38.036C813.999 37.916 813.645 37.742 813.333 37.514C813.033 37.274 812.793 36.986 812.613 36.65C812.445 36.302 812.361 35.912 812.361 35.48C812.361 34.904 812.517 34.424 812.829 34.04C813.141 33.644 813.579 33.32 814.143 33.068C814.719 32.804 815.409 32.594 816.213 32.438C817.017 32.282 817.917 32.15 818.913 32.042V31.772C818.913 31.316 818.853 30.938 818.733 30.638C818.625 30.338 818.469 30.104 818.265 29.936C818.061 29.756 817.821 29.63 817.545 29.558C817.269 29.486 816.975 29.45 816.663 29.45C815.907 29.45 815.337 29.624 814.953 29.972C814.569 30.308 814.359 30.776 814.323 31.376H812.631C812.667 30.86 812.805 30.398 813.045 29.99C813.285 29.582 813.591 29.24 813.963 28.964C814.335 28.688 814.755 28.478 815.223 28.334C815.691 28.19 816.177 28.118 816.681 28.118C818.025 28.118 819.009 28.43 819.633 29.054C820.257 29.678 820.563 30.686 820.551 32.078L820.533 34.346C820.521 35.162 820.533 35.864 820.569 36.452C820.617 37.028 820.689 37.544 820.785 38H819.129C819.105 37.82 819.081 37.61 819.057 37.37C819.033 37.13 819.015 36.866 819.003 36.578C818.703 37.082 818.289 37.484 817.761 37.784C817.245 38.084 816.555 38.234 815.691 38.234ZM822.772 36.578L828.37 29.738H823.132V28.316H830.278V29.738L824.698 36.578H830.386V38H822.772V36.578ZM838.795 33.338C838.051 33.41 837.379 33.5 836.779 33.608C836.179 33.704 835.669 33.83 835.249 33.986C834.829 34.13 834.505 34.322 834.277 34.562C834.049 34.79 833.935 35.072 833.935 35.408C833.935 35.864 834.097 36.236 834.421 36.524C834.757 36.8 835.219 36.938 835.807 36.938C836.191 36.938 836.563 36.89 836.923 36.794C837.283 36.686 837.601 36.512 837.877 36.272C838.153 36.02 838.375 35.684 838.543 35.264C838.711 34.844 838.795 34.31 838.795 33.662V33.338ZM835.447 38.234C834.991 38.234 834.559 38.168 834.151 38.036C833.755 37.916 833.401 37.742 833.089 37.514C832.789 37.274 832.549 36.986 832.369 36.65C832.201 36.302 832.117 35.912 832.117 35.48C832.117 34.904 832.273 34.424 832.585 34.04C832.897 33.644 833.335 33.32 833.899 33.068C834.475 32.804 835.165 32.594 835.969 32.438C836.773 32.282 837.673 32.15 838.669 32.042V31.772C838.669 31.316 838.609 30.938 838.489 30.638C838.381 30.338 838.225 30.104 838.021 29.936C837.817 29.756 837.577 29.63 837.301 29.558C837.025 29.486 836.731 29.45 836.419 29.45C835.663 29.45 835.093 29.624 834.709 29.972C834.325 30.308 834.115 30.776 834.079 31.376H832.387C832.423 30.86 832.561 30.398 832.801 29.99C833.041 29.582 833.347 29.24 833.719 28.964C834.091 28.688 834.511 28.478 834.979 28.334C835.447 28.19 835.933 28.118 836.437 28.118C837.781 28.118 838.765 28.43 839.389 29.054C840.013 29.678 840.319 30.686 840.307 32.078L840.289 34.346C840.277 35.162 840.289 35.864 840.325 36.452C840.373 37.028 840.445 37.544 840.541 38H838.885C838.861 37.82 838.837 37.61 838.813 37.37C838.789 37.13 838.771 36.866 838.759 36.578C838.459 37.082 838.045 37.484 837.517 37.784C837.001 38.084 836.311 38.234 835.447 38.234ZM848.054 30.026C847.886 30.002 847.724 29.984 847.568 29.972C847.412 29.96 847.268 29.954 847.136 29.954C846.38 29.954 845.81 30.182 845.426 30.638C845.054 31.094 844.868 31.856 844.868 32.924V38H843.23V28.316H844.832V30.008C845.072 29.456 845.426 29.036 845.894 28.748C846.374 28.448 846.932 28.286 847.568 28.262C847.652 28.262 847.73 28.262 847.802 28.262C847.874 28.262 847.958 28.268 848.054 28.28V30.026ZM856.54 24.95H858.178V38H856.54V36.542C856.24 37.058 855.832 37.472 855.316 37.784C854.8 38.084 854.152 38.234 853.372 38.234C852.796 38.234 852.262 38.126 851.77 37.91C851.278 37.682 850.846 37.352 850.474 36.92C850.102 36.488 849.808 35.96 849.592 35.336C849.388 34.712 849.286 33.998 849.286 33.194C849.286 32.402 849.388 31.694 849.592 31.07C849.808 30.446 850.102 29.918 850.474 29.486C850.846 29.054 851.278 28.724 851.77 28.496C852.262 28.268 852.796 28.154 853.372 28.154C854.152 28.154 854.8 28.31 855.316 28.622C855.832 28.922 856.24 29.33 856.54 29.846V24.95ZM856.612 33.194C856.612 32.558 856.534 32.012 856.378 31.556C856.222 31.088 856.012 30.71 855.748 30.422C855.484 30.122 855.178 29.906 854.83 29.774C854.494 29.63 854.146 29.558 853.786 29.558C852.91 29.558 852.238 29.876 851.77 30.512C851.302 31.136 851.068 32.03 851.068 33.194C851.068 34.358 851.302 35.258 851.77 35.894C852.238 36.518 852.91 36.83 853.786 36.83C854.146 36.83 854.494 36.764 854.83 36.632C855.178 36.488 855.484 36.272 855.748 35.984C856.012 35.684 856.222 35.306 856.378 34.85C856.534 34.382 856.612 33.83 856.612 33.194ZM868.122 36.416H875.016V38H866.286V24.95H868.122V36.416ZM882.937 33.338C882.193 33.41 881.521 33.5 880.921 33.608C880.321 33.704 879.811 33.83 879.391 33.986C878.971 34.13 878.647 34.322 878.419 34.562C878.191 34.79 878.077 35.072 878.077 35.408C878.077 35.864 878.239 36.236 878.563 36.524C878.899 36.8 879.361 36.938 879.949 36.938C880.333 36.938 880.705 36.89 881.065 36.794C881.425 36.686 881.743 36.512 882.019 36.272C882.295 36.02 882.517 35.684 882.685 35.264C882.853 34.844 882.937 34.31 882.937 33.662V33.338ZM879.589 38.234C879.133 38.234 878.701 38.168 878.293 38.036C877.897 37.916 877.543 37.742 877.231 37.514C876.931 37.274 876.691 36.986 876.511 36.65C876.343 36.302 876.259 35.912 876.259 35.48C876.259 34.904 876.415 34.424 876.727 34.04C877.039 33.644 877.477 33.32 878.041 33.068C878.617 32.804 879.307 32.594 880.111 32.438C880.915 32.282 881.815 32.15 882.811 32.042V31.772C882.811 31.316 882.751 30.938 882.631 30.638C882.523 30.338 882.367 30.104 882.163 29.936C881.959 29.756 881.719 29.63 881.443 29.558C881.167 29.486 880.873 29.45 880.561 29.45C879.805 29.45 879.235 29.624 878.851 29.972C878.467 30.308 878.257 30.776 878.221 31.376H876.529C876.565 30.86 876.703 30.398 876.943 29.99C877.183 29.582 877.489 29.24 877.861 28.964C878.233 28.688 878.653 28.478 879.121 28.334C879.589 28.19 880.075 28.118 880.579 28.118C881.923 28.118 882.907 28.43 883.531 29.054C884.155 29.678 884.461 30.686 884.449 32.078L884.431 34.346C884.419 35.162 884.431 35.864 884.467 36.452C884.515 37.028 884.587 37.544 884.683 38H883.027C883.003 37.82 882.979 37.61 882.955 37.37C882.931 37.13 882.913 36.866 882.901 36.578C882.601 37.082 882.187 37.484 881.659 37.784C881.143 38.084 880.453 38.234 879.589 38.234ZM888.938 33.194C888.938 33.83 889.016 34.382 889.172 34.85C889.328 35.306 889.538 35.684 889.802 35.984C890.066 36.272 890.366 36.488 890.702 36.632C891.05 36.764 891.404 36.83 891.764 36.83C892.64 36.83 893.312 36.518 893.78 35.894C894.248 35.258 894.482 34.358 894.482 33.194C894.482 32.03 894.248 31.136 893.78 30.512C893.312 29.876 892.64 29.558 891.764 29.558C891.404 29.558 891.05 29.63 890.702 29.774C890.366 29.906 890.066 30.122 889.802 30.422C889.538 30.71 889.328 31.088 889.172 31.556C889.016 32.012 888.938 32.558 888.938 33.194ZM889.01 24.95V29.846C889.31 29.33 889.718 28.922 890.234 28.622C890.75 28.31 891.398 28.154 892.178 28.154C892.754 28.154 893.288 28.268 893.78 28.496C894.272 28.724 894.704 29.054 895.076 29.486C895.448 29.918 895.736 30.446 895.94 31.07C896.156 31.694 896.264 32.402 896.264 33.194C896.264 33.998 896.156 34.712 895.94 35.336C895.736 35.96 895.448 36.488 895.076 36.92C894.704 37.352 894.272 37.682 893.78 37.91C893.288 38.126 892.754 38.234 892.178 38.234C891.398 38.234 890.75 38.084 890.234 37.784C889.718 37.472 889.31 37.058 889.01 36.542V38H887.372V24.95H889.01ZM902.855 38.234C902.075 38.234 901.391 38.108 900.803 37.856C900.227 37.592 899.741 37.232 899.345 36.776C898.949 36.32 898.649 35.786 898.445 35.174C898.253 34.562 898.157 33.896 898.157 33.176C898.157 32.408 898.271 31.718 898.499 31.106C898.739 30.482 899.063 29.954 899.471 29.522C899.891 29.078 900.383 28.742 900.947 28.514C901.511 28.274 902.129 28.154 902.801 28.154C903.545 28.154 904.205 28.298 904.781 28.586C905.369 28.874 905.855 29.27 906.239 29.774C906.623 30.278 906.899 30.866 907.067 31.538C907.247 32.21 907.313 32.93 907.265 33.698H899.939C899.939 34.178 900.011 34.61 900.155 34.994C900.311 35.378 900.521 35.702 900.785 35.966C901.049 36.23 901.355 36.434 901.703 36.578C902.051 36.722 902.423 36.794 902.819 36.794C903.575 36.794 904.151 36.65 904.547 36.362C904.943 36.062 905.243 35.672 905.447 35.192H907.139C907.031 35.612 906.857 36.008 906.617 36.38C906.377 36.74 906.077 37.058 905.717 37.334C905.369 37.61 904.955 37.832 904.475 38C903.995 38.156 903.455 38.234 902.855 38.234ZM902.801 29.558C901.973 29.558 901.301 29.798 900.785 30.278C900.269 30.746 899.993 31.418 899.957 32.294H905.537C905.525 31.958 905.459 31.628 905.339 31.304C905.219 30.968 905.045 30.674 904.817 30.422C904.589 30.158 904.307 29.948 903.971 29.792C903.635 29.636 903.245 29.558 902.801 29.558ZM911.332 38H909.694V24.95H911.332V38Z" fill="#19110B"/>
<path d="M932.28 26.7799C932.673 26.4067 933.322 26.4067 933.716 26.7799C934.095 27.1388 934.095 27.7091 933.716 28.068L927.086 34.3524L925.196 34.8004L925.655 33.0591L932.28 26.7799Z" stroke="#19110B" stroke-linecap="round" stroke-linejoin="round"/>
<mask id="path-6-inside-2_412_41773" fill="white">
<path fill-rule="evenodd" clip-rule="evenodd" d="M925.125 37.3021H933.875H925.125Z"/>
</mask>
<path d="M925.125 36.8021C924.849 36.8021 924.625 37.0259 924.625 37.3021C924.625 37.5782 924.849 37.8021 925.125 37.8021V36.8021ZM933.875 37.8021C934.151 37.8021 934.375 37.5782 934.375 37.3021C934.375 37.0259 934.151 36.8021 933.875 36.8021V37.8021ZM925.125 37.8021H933.875V36.8021H925.125V37.8021Z" fill="#19110B" mask="url(#path-6-inside-2_412_41773)"/>
<rect x="961.5" y="16" width="104" height="32" rx="16" fill="#04A777" fill-opacity="0.1"/>
<path d="M980.728 27.3H982.144L985.42 36H984.1L983.416 34.116H979.42L978.748 36H977.5L980.728 27.3ZM979.792 33.072H983.032L981.4 28.536L979.792 33.072ZM987.378 29.544V30.564C987.578 30.22 987.85 29.948 988.194 29.748C988.538 29.54 988.97 29.436 989.49 29.436C989.874 29.436 990.23 29.512 990.558 29.664C990.886 29.816 991.174 30.036 991.422 30.324C991.67 30.612 991.862 30.964 991.998 31.38C992.142 31.796 992.214 32.268 992.214 32.796C992.214 33.332 992.142 33.808 991.998 34.224C991.862 34.64 991.67 34.992 991.422 35.28C991.174 35.568 990.886 35.788 990.558 35.94C990.23 36.084 989.874 36.156 989.49 36.156C988.97 36.156 988.538 36.056 988.194 35.856C987.85 35.648 987.578 35.372 987.378 35.028V38.1H986.286V29.544H987.378ZM987.33 32.796C987.33 33.22 987.382 33.588 987.486 33.9C987.59 34.204 987.73 34.456 987.906 34.656C988.082 34.848 988.282 34.992 988.506 35.088C988.738 35.176 988.974 35.22 989.214 35.22C989.798 35.22 990.246 35.012 990.558 34.596C990.87 34.172 991.026 33.572 991.026 32.796C991.026 32.02 990.87 31.424 990.558 31.008C990.246 30.584 989.798 30.372 989.214 30.372C988.974 30.372 988.738 30.42 988.506 30.516C988.282 30.604 988.082 30.748 987.906 30.948C987.73 31.14 987.59 31.392 987.486 31.704C987.382 32.008 987.33 32.372 987.33 32.796ZM994.585 29.544V30.564C994.785 30.22 995.057 29.948 995.401 29.748C995.745 29.54 996.177 29.436 996.697 29.436C997.081 29.436 997.437 29.512 997.765 29.664C998.093 29.816 998.381 30.036 998.629 30.324C998.877 30.612 999.069 30.964 999.205 31.38C999.349 31.796 999.421 32.268 999.421 32.796C999.421 33.332 999.349 33.808 999.205 34.224C999.069 34.64 998.877 34.992 998.629 35.28C998.381 35.568 998.093 35.788 997.765 35.94C997.437 36.084 997.081 36.156 996.697 36.156C996.177 36.156 995.745 36.056 995.401 35.856C995.057 35.648 994.785 35.372 994.585 35.028V38.1H993.493V29.544H994.585ZM994.537 32.796C994.537 33.22 994.589 33.588 994.693 33.9C994.797 34.204 994.937 34.456 995.113 34.656C995.289 34.848 995.489 34.992 995.713 35.088C995.945 35.176 996.181 35.22 996.421 35.22C997.005 35.22 997.453 35.012 997.765 34.596C998.077 34.172 998.233 33.572 998.233 32.796C998.233 32.02 998.077 31.424 997.765 31.008C997.453 30.584 997.005 30.372 996.421 30.372C996.181 30.372 995.945 30.42 995.713 30.516C995.489 30.604 995.289 30.748 995.113 30.948C994.937 31.14 994.797 31.392 994.693 31.704C994.589 32.008 994.537 32.372 994.537 32.796ZM1003.92 30.684C1003.8 30.668 1003.7 30.656 1003.59 30.648C1003.49 30.64 1003.39 30.636 1003.3 30.636C1002.8 30.636 1002.42 30.788 1002.16 31.092C1001.92 31.396 1001.79 31.904 1001.79 32.616V36H1000.7V29.544H1001.77V30.672C1001.93 30.304 1002.16 30.024 1002.48 29.832C1002.8 29.632 1003.17 29.524 1003.59 29.508C1003.65 29.508 1003.7 29.508 1003.75 29.508C1003.8 29.508 1003.85 29.512 1003.92 29.52V30.684ZM1005.59 32.796C1005.59 33.228 1005.64 33.596 1005.74 33.9C1005.84 34.204 1005.98 34.452 1006.14 34.644C1006.32 34.836 1006.52 34.976 1006.76 35.064C1006.99 35.152 1007.23 35.196 1007.49 35.196C1007.74 35.196 1007.99 35.148 1008.22 35.052C1008.45 34.956 1008.65 34.812 1008.82 34.62C1009 34.42 1009.13 34.172 1009.23 33.876C1009.33 33.572 1009.38 33.212 1009.38 32.796C1009.38 32.364 1009.33 31.996 1009.23 31.692C1009.13 31.388 1009 31.14 1008.82 30.948C1008.65 30.756 1008.45 30.616 1008.22 30.528C1007.99 30.44 1007.74 30.396 1007.49 30.396C1007.23 30.396 1006.99 30.44 1006.76 30.528C1006.52 30.608 1006.32 30.744 1006.14 30.936C1005.98 31.128 1005.84 31.376 1005.74 31.68C1005.64 31.984 1005.59 32.356 1005.59 32.796ZM1004.43 32.796C1004.43 32.212 1004.51 31.708 1004.68 31.284C1004.86 30.86 1005.09 30.512 1005.38 30.24C1005.66 29.968 1005.99 29.768 1006.36 29.64C1006.73 29.504 1007.1 29.436 1007.49 29.436C1007.87 29.436 1008.25 29.504 1008.62 29.64C1008.98 29.768 1009.31 29.968 1009.6 30.24C1009.89 30.512 1010.12 30.86 1010.28 31.284C1010.46 31.708 1010.55 32.212 1010.55 32.796C1010.55 33.38 1010.46 33.884 1010.28 34.308C1010.12 34.732 1009.89 35.08 1009.6 35.352C1009.31 35.624 1008.98 35.828 1008.62 35.964C1008.25 36.092 1007.87 36.156 1007.49 36.156C1007.1 36.156 1006.73 36.092 1006.36 35.964C1005.99 35.828 1005.66 35.624 1005.38 35.352C1005.09 35.08 1004.86 34.732 1004.68 34.308C1004.51 33.884 1004.43 33.38 1004.43 32.796ZM1013.84 34.488L1015.59 29.544H1016.72L1014.28 36H1013.31L1010.88 29.544H1012.09L1013.84 34.488ZM1020.16 36.156C1019.64 36.156 1019.18 36.072 1018.79 35.904C1018.41 35.728 1018.08 35.488 1017.82 35.184C1017.55 34.88 1017.35 34.524 1017.22 34.116C1017.09 33.708 1017.03 33.264 1017.03 32.784C1017.03 32.272 1017.1 31.812 1017.25 31.404C1017.41 30.988 1017.63 30.636 1017.9 30.348C1018.18 30.052 1018.51 29.828 1018.89 29.676C1019.26 29.516 1019.67 29.436 1020.12 29.436C1020.62 29.436 1021.06 29.532 1021.44 29.724C1021.83 29.916 1022.16 30.18 1022.41 30.516C1022.67 30.852 1022.85 31.244 1022.97 31.692C1023.09 32.14 1023.13 32.62 1023.1 33.132H1018.21C1018.21 33.452 1018.26 33.74 1018.36 33.996C1018.46 34.252 1018.6 34.468 1018.78 34.644C1018.95 34.82 1019.16 34.956 1019.39 35.052C1019.62 35.148 1019.87 35.196 1020.13 35.196C1020.64 35.196 1021.02 35.1 1021.29 34.908C1021.55 34.708 1021.75 34.448 1021.89 34.128H1023.01C1022.94 34.408 1022.83 34.672 1022.67 34.92C1022.51 35.16 1022.31 35.372 1022.07 35.556C1021.83 35.74 1021.56 35.888 1021.24 36C1020.92 36.104 1020.56 36.156 1020.16 36.156ZM1020.12 30.372C1019.57 30.372 1019.12 30.532 1018.78 30.852C1018.43 31.164 1018.25 31.612 1018.23 32.196H1021.95C1021.94 31.972 1021.89 31.752 1021.81 31.536C1021.73 31.312 1021.62 31.116 1021.47 30.948C1021.31 30.772 1021.13 30.632 1020.9 30.528C1020.68 30.424 1020.42 30.372 1020.12 30.372ZM1028.83 27.3H1029.93V36H1028.83V35.028C1028.63 35.372 1028.36 35.648 1028.02 35.856C1027.67 36.056 1027.24 36.156 1026.72 36.156C1026.34 36.156 1025.98 36.084 1025.65 35.94C1025.33 35.788 1025.04 35.568 1024.79 35.28C1024.54 34.992 1024.35 34.64 1024.2 34.224C1024.07 33.808 1024 33.332 1024 32.796C1024 32.268 1024.07 31.796 1024.2 31.38C1024.35 30.964 1024.54 30.612 1024.79 30.324C1025.04 30.036 1025.33 29.816 1025.65 29.664C1025.98 29.512 1026.34 29.436 1026.72 29.436C1027.24 29.436 1027.67 29.54 1028.02 29.748C1028.36 29.948 1028.63 30.22 1028.83 30.564V27.3ZM1028.88 32.796C1028.88 32.372 1028.83 32.008 1028.73 31.704C1028.62 31.392 1028.48 31.14 1028.31 30.948C1028.13 30.748 1027.93 30.604 1027.69 30.516C1027.47 30.42 1027.24 30.372 1027 30.372C1026.41 30.372 1025.97 30.584 1025.65 31.008C1025.34 31.424 1025.19 32.02 1025.19 32.796C1025.19 33.572 1025.34 34.172 1025.65 34.596C1025.97 35.012 1026.41 35.22 1027 35.22C1027.24 35.22 1027.47 35.176 1027.69 35.088C1027.93 34.992 1028.13 34.848 1028.31 34.656C1028.48 34.456 1028.62 34.204 1028.73 33.9C1028.83 33.588 1028.88 33.22 1028.88 32.796Z" fill="#04A777"/>
<path d="M1052.17 29.9993L1047.5 34.666L1042.83 29.9993" stroke="#04A777" stroke-linecap="round" stroke-linejoin="round"/>
<path d="M1523.5 32C1523.5 36.1421 1520.14 39.5 1516 39.5C1514.52 39.5 1513.15 39.0737 1511.99 38.3375L1508.5 39.5L1509.66 36.0125C1508.93 34.8522 1508.5 33.4759 1508.5 32C1508.5 27.8579 1511.86 24.5 1516 24.5C1520.14 24.5 1523.5 27.8579 1523.5 32Z" stroke="#19110B" stroke-linecap="round" stroke-linejoin="round"/>
<path d="M1581 39.5C1582.38 39.5 1583.5 38.3807 1583.5 37C1583.5 35.6193 1582.38 34.5 1581 34.5C1579.62 34.5 1578.5 35.6193 1578.5 37C1578.5 38.3807 1579.62 39.5 1581 39.5Z" stroke="#222222" stroke-linecap="round" stroke-linejoin="round"/>
<path d="M1573.5 33.25L1578.5 35.75" stroke="#222222" stroke-linecap="round" stroke-linejoin="round"/>
<path d="M1571 34.5C1572.38 34.5 1573.5 33.3807 1573.5 32C1573.5 30.6193 1572.38 29.5 1571 29.5C1569.62 29.5 1568.5 30.6193 1568.5 32C1568.5 33.3807 1569.62 34.5 1571 34.5Z" stroke="#222222" stroke-linecap="round" stroke-linejoin="round"/>
<path d="M1578.5 28.25L1573.5 30.75" stroke="#222222" stroke-linecap="round" stroke-linejoin="round"/>
<path d="M1581 29.5C1582.38 29.5 1583.5 28.3807 1583.5 27C1583.5 25.6193 1582.38 24.5 1581 24.5C1579.62 24.5 1578.5 25.6193 1578.5 27C1578.5 28.3807 1579.62 29.5 1581 29.5Z" stroke="#222222" stroke-linecap="round" stroke-linejoin="round"/>
<path d="M1630.67 36.4429H1628.89C1628.4 36.4429 1628 36.0449 1628 35.554L1628 28.4435C1628 27.9526 1628.4 27.5547 1628.89 27.5547L1643.11 27.5547C1643.6 27.5547 1644 27.9526 1644 28.4435V35.554C1644 36.0449 1643.6 36.4429 1643.11 36.4429H1641.33" stroke="#19110B" stroke-linecap="round" stroke-linejoin="round"/>
<path d="M1631.55 40.0009L1640.44 40.0009C1640.93 40.0009 1641.33 39.6029 1641.33 39.1121V35.5568C1641.33 35.0659 1640.93 34.668 1640.44 34.668L1631.55 34.668C1631.06 34.668 1630.66 35.0659 1630.66 35.5568L1630.66 39.1121C1630.66 39.6029 1631.06 40.0009 1631.55 40.0009Z" stroke="#19110B" stroke-linecap="round" stroke-linejoin="round"/>
<path d="M1634.22 31.1094H1637.78" stroke="#19110B" stroke-linecap="round" stroke-linejoin="round"/>
<path d="M1631.55 27.5553L1640.44 27.5553C1640.93 27.5553 1641.33 27.1573 1641.33 26.6664V24.8888C1641.33 24.3979 1640.93 24 1640.44 24L1631.55 24C1631.06 24 1630.66 24.3979 1630.66 24.8888L1630.66 26.6665C1630.66 27.1573 1631.06 27.5553 1631.55 27.5553Z" stroke="#19110B" stroke-linecap="round" stroke-linejoin="round"/>
<path d="M1674.5 32C1674.5 21.2304 1683.23 12.5 1694 12.5H1796C1806.77 12.5 1815.5 21.2304 1815.5 32C1815.5 42.7696 1806.77 51.5 1796 51.5H1694C1683.23 51.5 1674.5 42.7696 1674.5 32Z" fill="white"/>
<path d="M1674.5 32C1674.5 21.2304 1683.23 12.5 1694 12.5H1796C1806.77 12.5 1815.5 21.2304 1815.5 32C1815.5 42.7696 1806.77 51.5 1796 51.5H1694C1683.23 51.5 1674.5 42.7696 1674.5 32Z" stroke="#E9E9EE"/>
<path d="M1693.33 27.3257C1693.33 26.6782 1693.33 26.3545 1693.47 26.1761C1693.58 26.0206 1693.76 25.9244 1693.96 25.9128C1694.18 25.8995 1694.45 26.079 1694.99 26.4382L1702 31.1118C1702.45 31.4085 1702.67 31.5569 1702.75 31.7439C1702.81 31.9074 1702.81 32.0911 1702.75 32.2547C1702.67 32.4417 1702.45 32.59 1702 32.8868L1694.99 37.5604C1694.45 37.9195 1694.18 38.0991 1693.96 38.0857C1693.76 38.0741 1693.58 37.9779 1693.47 37.8225C1693.33 37.644 1693.33 37.3203 1693.33 36.6729V27.3257Z" stroke="#19110B" stroke-linecap="round" stroke-linejoin="round"/>
<path d="M1718.38 26.85C1719 26.85 1719.56 26.892 1720.08 26.976C1720.6 27.06 1721.05 27.2187 1721.42 27.452C1721.79 27.676 1722.08 27.9887 1722.29 28.39C1722.49 28.782 1722.6 29.2907 1722.6 29.916C1722.6 30.5507 1722.49 31.0687 1722.29 31.47C1722.08 31.862 1721.79 32.17 1721.42 32.394C1721.05 32.618 1720.6 32.772 1720.08 32.856C1719.56 32.94 1719 32.982 1718.38 32.982H1716.63V37H1715.2V26.85H1718.38ZM1716.63 28.054V31.736H1718.49C1718.87 31.736 1719.21 31.722 1719.53 31.694C1719.86 31.6567 1720.14 31.5773 1720.37 31.456C1720.61 31.3253 1720.8 31.1433 1720.93 30.91C1721.07 30.6673 1721.14 30.336 1721.14 29.916C1721.14 29.5053 1721.07 29.1787 1720.93 28.936C1720.8 28.684 1720.61 28.4927 1720.37 28.362C1720.14 28.2313 1719.86 28.1473 1719.53 28.11C1719.21 28.0727 1718.87 28.054 1718.49 28.054H1716.63ZM1728.02 30.798C1727.89 30.7793 1727.77 30.7653 1727.65 30.756C1727.52 30.7467 1727.41 30.742 1727.31 30.742C1726.72 30.742 1726.28 30.9193 1725.98 31.274C1725.69 31.6287 1725.55 32.2213 1725.55 33.052V37H1724.27V29.468H1725.52V30.784C1725.7 30.3547 1725.98 30.028 1726.34 29.804C1726.72 29.5707 1727.15 29.4447 1727.65 29.426C1727.71 29.426 1727.77 29.426 1727.83 29.426C1727.88 29.426 1727.95 29.4307 1728.02 29.44V30.798ZM1732.75 37.182C1732.14 37.182 1731.61 37.084 1731.15 36.888C1730.7 36.6827 1730.33 36.4027 1730.02 36.048C1729.71 35.6933 1729.48 35.278 1729.32 34.802C1729.17 34.326 1729.09 33.808 1729.09 33.248C1729.09 32.6507 1729.18 32.114 1729.36 31.638C1729.55 31.1527 1729.8 30.742 1730.12 30.406C1730.44 30.0607 1730.82 29.7993 1731.26 29.622C1731.7 29.4353 1732.18 29.342 1732.71 29.342C1733.28 29.342 1733.8 29.454 1734.25 29.678C1734.7 29.902 1735.08 30.21 1735.38 30.602C1735.68 30.994 1735.89 31.4513 1736.02 31.974C1736.16 32.4967 1736.21 33.0567 1736.18 33.654H1730.48C1730.48 34.0273 1730.54 34.3633 1730.65 34.662C1730.77 34.9607 1730.93 35.2127 1731.14 35.418C1731.34 35.6233 1731.58 35.782 1731.85 35.894C1732.12 36.006 1732.41 36.062 1732.72 36.062C1733.31 36.062 1733.76 35.95 1734.06 35.726C1734.37 35.4927 1734.6 35.1893 1734.76 34.816H1736.08C1736 35.1427 1735.86 35.4507 1735.67 35.74C1735.49 36.02 1735.25 36.2673 1734.97 36.482C1734.7 36.6967 1734.38 36.8693 1734.01 37C1733.63 37.1213 1733.21 37.182 1732.75 37.182ZM1732.71 30.434C1732.06 30.434 1731.54 30.6207 1731.14 30.994C1730.74 31.358 1730.52 31.8807 1730.49 32.562H1734.83C1734.82 32.3007 1734.77 32.044 1734.68 31.792C1734.59 31.5307 1734.45 31.302 1734.27 31.106C1734.1 30.9007 1733.88 30.7373 1733.62 30.616C1733.35 30.4947 1733.05 30.434 1732.71 30.434ZM1740.56 35.236L1742.6 29.468H1743.92L1741.08 37H1739.94L1737.1 29.468H1738.52L1740.56 35.236ZM1746.71 29.468V37H1745.43V29.468H1746.71ZM1746.71 26.85V28.39H1745.43V26.85H1746.71ZM1752.36 37.182C1751.76 37.182 1751.22 37.084 1750.77 36.888C1750.32 36.6827 1749.94 36.4027 1749.63 36.048C1749.32 35.6933 1749.09 35.278 1748.93 34.802C1748.78 34.326 1748.71 33.808 1748.71 33.248C1748.71 32.6507 1748.8 32.114 1748.97 31.638C1749.16 31.1527 1749.41 30.742 1749.73 30.406C1750.06 30.0607 1750.44 29.7993 1750.88 29.622C1751.32 29.4353 1751.8 29.342 1752.32 29.342C1752.9 29.342 1753.41 29.454 1753.86 29.678C1754.32 29.902 1754.7 30.21 1754.99 30.602C1755.29 30.994 1755.51 31.4513 1755.64 31.974C1755.78 32.4967 1755.83 33.0567 1755.79 33.654H1750.09C1750.09 34.0273 1750.15 34.3633 1750.26 34.662C1750.38 34.9607 1750.55 35.2127 1750.75 35.418C1750.96 35.6233 1751.2 35.782 1751.47 35.894C1751.74 36.006 1752.03 36.062 1752.33 36.062C1752.92 36.062 1753.37 35.95 1753.68 35.726C1753.99 35.4927 1754.22 35.1893 1754.38 34.816H1755.69C1755.61 35.1427 1755.48 35.4507 1755.29 35.74C1755.1 36.02 1754.87 36.2673 1754.59 36.482C1754.32 36.6967 1754 36.8693 1753.62 37C1753.25 37.1213 1752.83 37.182 1752.36 37.182ZM1752.32 30.434C1751.68 30.434 1751.15 30.6207 1750.75 30.994C1750.35 31.358 1750.14 31.8807 1750.11 32.562H1754.45C1754.44 32.3007 1754.39 32.044 1754.29 31.792C1754.2 31.5307 1754.07 31.302 1753.89 31.106C1753.71 30.9007 1753.49 30.7373 1753.23 30.616C1752.97 30.4947 1752.67 30.434 1752.32 30.434ZM1761.13 29.468H1762.44L1763.94 35.04L1765.38 29.468H1766.75L1764.58 37H1763.42L1761.76 30.938L1760.15 37H1758.98L1756.81 29.468H1758.19L1759.63 35.04L1761.13 29.468Z" fill="#19110B"/>
<rect width="44" height="40" transform="translate(1772 12)" fill="white"/>
<path d="M1795.83 29.5007L1790 35.334L1784.17 29.5007" stroke="#5E626D" stroke-linecap="round" stroke-linejoin="round"/>
<path d="M29.204 26.85H35.798V28.082H30.632V31.162H35.504V32.394H30.632V37H29.204V26.85ZM38.616 29.468V37H37.342V29.468H38.616ZM38.616 26.85V28.39H37.342V26.85H38.616ZM42.4109 37H41.1369V26.85H42.4109V37ZM48.0678 37.182C47.4612 37.182 46.9292 37.084 46.4718 36.888C46.0238 36.6827 45.6458 36.4027 45.3378 36.048C45.0298 35.6933 44.7965 35.278 44.6378 34.802C44.4885 34.326 44.4138 33.808 44.4138 33.248C44.4138 32.6507 44.5025 32.114 44.6798 31.638C44.8665 31.1527 45.1185 30.742 45.4358 30.406C45.7625 30.0607 46.1452 29.7993 46.5838 29.622C47.0225 29.4353 47.5032 29.342 48.0258 29.342C48.6045 29.342 49.1178 29.454 49.5658 29.678C50.0232 29.902 50.4012 30.21 50.6998 30.602C50.9985 30.994 51.2132 31.4513 51.3438 31.974C51.4838 32.4967 51.5352 33.0567 51.4978 33.654H45.7998C45.7998 34.0273 45.8558 34.3633 45.9678 34.662C46.0892 34.9607 46.2525 35.2127 46.4578 35.418C46.6632 35.6233 46.9012 35.782 47.1718 35.894C47.4425 36.006 47.7318 36.062 48.0398 36.062C48.6278 36.062 49.0758 35.95 49.3838 35.726C49.6918 35.4927 49.9252 35.1893 50.0838 34.816H51.3998C51.3158 35.1427 51.1805 35.4507 50.9938 35.74C50.8072 36.02 50.5738 36.2673 50.2938 36.482C50.0232 36.6967 49.7012 36.8693 49.3278 37C48.9545 37.1213 48.5345 37.182 48.0678 37.182ZM48.0258 30.434C47.3818 30.434 46.8592 30.6207 46.4578 30.994C46.0565 31.358 45.8418 31.8807 45.8138 32.562H50.1538C50.1445 32.3007 50.0932 32.044 49.9998 31.792C49.9065 31.5307 49.7712 31.302 49.5938 31.106C49.4165 30.9007 49.1972 30.7373 48.9358 30.616C48.6745 30.4947 48.3712 30.434 48.0258 30.434Z" fill="#19110B"/>
<path d="M77.204 26.85H84.092V28.082H78.632V31.162H83.77V32.394H78.632V35.768H84.092V37H77.204V26.85ZM91.4914 26.85H92.7654V37H91.4914V35.866C91.258 36.2673 90.9407 36.5893 90.5394 36.832C90.138 37.0653 89.634 37.182 89.0274 37.182C88.5794 37.182 88.164 37.098 87.7814 36.93C87.3987 36.7527 87.0627 36.496 86.7734 36.16C86.484 35.824 86.2554 35.4133 86.0874 34.928C85.9287 34.4427 85.8494 33.8873 85.8494 33.262C85.8494 32.646 85.9287 32.0953 86.0874 31.61C86.2554 31.1247 86.484 30.714 86.7734 30.378C87.0627 30.042 87.3987 29.7853 87.7814 29.608C88.164 29.4307 88.5794 29.342 89.0274 29.342C89.634 29.342 90.138 29.4633 90.5394 29.706C90.9407 29.9393 91.258 30.2567 91.4914 30.658V26.85ZM91.5474 33.262C91.5474 32.7673 91.4867 32.3427 91.3654 31.988C91.244 31.624 91.0807 31.33 90.8754 31.106C90.67 30.8727 90.432 30.7047 90.1614 30.602C89.9 30.49 89.6294 30.434 89.3494 30.434C88.668 30.434 88.1454 30.6813 87.7814 31.176C87.4174 31.6613 87.2354 32.3567 87.2354 33.262C87.2354 34.1673 87.4174 34.8673 87.7814 35.362C88.1454 35.8473 88.668 36.09 89.3494 36.09C89.6294 36.09 89.9 36.0387 90.1614 35.936C90.432 35.824 90.67 35.656 90.8754 35.432C91.0807 35.1987 91.244 34.9047 91.3654 34.55C91.4867 34.186 91.5474 33.7567 91.5474 33.262ZM96.5496 29.468V37H95.2756V29.468H96.5496ZM96.5496 26.85V28.39H95.2756V26.85H96.5496ZM99.4345 27.578H100.709V29.468H102.137V30.49H100.709V34.956C100.709 35.152 100.713 35.3153 100.723 35.446C100.741 35.5673 100.774 35.6653 100.821 35.74C100.877 35.8147 100.956 35.866 101.059 35.894C101.161 35.922 101.306 35.936 101.493 35.936H102.137V37H101.213C100.849 37 100.55 36.9767 100.317 36.93C100.093 36.874 99.9152 36.7807 99.7845 36.65C99.6538 36.51 99.5605 36.3187 99.5045 36.076C99.4578 35.824 99.4345 35.502 99.4345 35.11V30.49H98.2445V29.468H99.4345V27.578Z" fill="#19110B"/>
<path d="M128.722 26.85L131.536 35.53L134.294 26.85H135.792L132.348 37H130.64L127.154 26.85H128.722ZM138.505 29.468V37H137.231V29.468H138.505ZM138.505 26.85V28.39H137.231V26.85H138.505ZM144.162 37.182C143.555 37.182 143.023 37.084 142.566 36.888C142.118 36.6827 141.74 36.4027 141.432 36.048C141.124 35.6933 140.89 35.278 140.732 34.802C140.582 34.326 140.508 33.808 140.508 33.248C140.508 32.6507 140.596 32.114 140.774 31.638C140.96 31.1527 141.212 30.742 141.53 30.406C141.856 30.0607 142.239 29.7993 142.678 29.622C143.116 29.4353 143.597 29.342 144.12 29.342C144.698 29.342 145.212 29.454 145.66 29.678C146.117 29.902 146.495 30.21 146.794 30.602C147.092 30.994 147.307 31.4513 147.438 31.974C147.578 32.4967 147.629 33.0567 147.592 33.654H141.894C141.894 34.0273 141.95 34.3633 142.062 34.662C142.183 34.9607 142.346 35.2127 142.552 35.418C142.757 35.6233 142.995 35.782 143.266 35.894C143.536 36.006 143.826 36.062 144.134 36.062C144.722 36.062 145.17 35.95 145.478 35.726C145.786 35.4927 146.019 35.1893 146.178 34.816H147.494C147.41 35.1427 147.274 35.4507 147.088 35.74C146.901 36.02 146.668 36.2673 146.388 36.482C146.117 36.6967 145.795 36.8693 145.422 37C145.048 37.1213 144.628 37.182 144.162 37.182ZM144.12 30.434C143.476 30.434 142.953 30.6207 142.552 30.994C142.15 31.358 141.936 31.8807 141.908 32.562H146.248C146.238 32.3007 146.187 32.044 146.094 31.792C146 31.5307 145.865 31.302 145.688 31.106C145.51 30.9007 145.291 30.7373 145.03 30.616C144.768 30.4947 144.465 30.434 144.12 30.434ZM152.925 29.468H154.241L155.739 35.04L157.181 29.468H158.553L156.383 37H155.221L153.555 30.938L151.945 37H150.783L148.613 29.468H149.985L151.427 35.04L152.925 29.468Z" fill="#19110B"/>
<path d="M183 40V24" stroke="#E9E9EE" stroke-width="1.6" stroke-linecap="round"/>
<path fill-rule="evenodd" clip-rule="evenodd" d="M226 39C228.209 39 230 37.2091 230 35C230 32.7909 228.209 31 226 31C225.976 31 225.953 31.0002 225.929 31.0006C225.444 27.608 222.527 25 219 25C216.203 25 213.79 26.64 212.669 29.0108C210.062 29.1814 208 31.35 208 34C208 36.7614 210.239 39 213 39H226Z" stroke="#8A8A8F" stroke-linecap="round" stroke-linejoin="round"/>
<path d="M222 31L218 35L216 33" stroke="#8A8A8F" stroke-linecap="round" stroke-linejoin="round"/>
</svg>
