<svg width="24" height="24" viewBox="0 0 24 24" fill="none" xmlns="http://www.w3.org/2000/svg">
<path d="M20.6464 21.3535C20.8417 21.5488 21.1582 21.5488 21.3535 21.3535C21.5488 21.1582 21.5488 20.8417 21.3535 20.6464L20.6464 21.3535ZM3.35355 2.64645C3.15829 2.45118 2.84171 2.45118 2.64645 2.64645C2.45118 2.84171 2.45118 3.15829 2.64645 3.35355L3.35355 2.64645ZM21.3535 20.6464L3.35355 2.64645L2.64645 3.35355L20.6464 21.3535L21.3535 20.6464Z" fill="#19110B"/>
<path d="M21.3536 3.35355C21.5489 3.15829 21.5489 2.84171 21.3536 2.64645C21.1583 2.45118 20.8418 2.45118 20.6465 2.64645L21.3536 3.35355ZM2.64645 20.6465C2.45118 20.8418 2.45118 21.1583 2.64645 21.3536C2.84171 21.5489 3.15829 21.5489 3.35355 21.3536L2.64645 20.6465ZM20.6465 2.64645L2.64645 20.6465L3.35355 21.3536L21.3536 3.35355L20.6465 2.64645Z" fill="#19110B"/>
</svg>
