<?xml version="1.0" encoding="utf-8"?>
<!-- Generator: Adobe Illustrator 27.9.0, SVG Export Plug-In . SVG Version: 6.00 Build 0)  -->
<svg version="1.1" id="Layer_1" xmlns="http://www.w3.org/2000/svg" xmlns:xlink="http://www.w3.org/1999/xlink" x="0px" y="0px"
	 viewBox="0 0 129.9 32" style="enable-background:new 0 0 129.9 32;" xml:space="preserve">
<style type="text/css">
	.st0{fill:none;stroke:#101828;stroke-width:1.9842;stroke-linejoin:round;}
	.st1{fill:#2E2E3A;}
</style>
<g>
	<path class="st0" d="M2,9.3v13.5c0,0.1,0.1,0.3,0.2,0.3l11.2,6.5V16.2c0-0.1,0.1-0.3,0.2-0.3l11.6-7L13.7,2.3
		c-0.1-0.1-0.3-0.1-0.4,0L2.2,8.7C2.1,8.8,2,8.9,2,9.1V9.3z"/>
	<path class="st0" d="M13.2,29.8l12-7V8.9l-12,7.4"/>
	<path class="st0" d="M6.9,25.4V12.5L19,5.4"/>
	<path class="st1" d="M48.3,8.7c3,0,6.4,0.4,6.4,4.8c0,3.7-3,4.6-6.3,4.6h-2.2v5.1h-2.9V8.7H48.3z M46.2,10.9v4.9h2.4
		c1.8,0,3.2-0.4,3.2-2.4c0-2.4-1.8-2.6-3.4-2.6H46.2z M61.9,15.1c-0.4,0-0.7-0.1-1.1-0.1c-1.4,0-2.3,0.5-2.3,2.5v5.6h-2.8V12.4h2.7
		v1.9c0.6-1.3,1.6-1.9,2.8-1.9c0.2,0,0.4,0,0.6,0V15.1z M62.6,17.8c0-3.8,2.7-5.6,5.4-5.6s5.4,1.9,5.4,5.6s-2.7,5.6-5.4,5.6
		S62.6,21.6,62.6,17.8z M65.4,17.8c0,2.2,1.1,3.5,2.6,3.5c1.5,0,2.6-1.2,2.6-3.5c0-2.3-1.1-3.5-2.6-3.5
		C66.5,14.3,65.4,15.6,65.4,17.8z M78,8.7v2.6h-2.8V8.7H78z M75.2,12.4H78v10.7c0,3-0.8,3.6-3.5,3.6h-0.7v-2.1h0.4
		c1,0,1.1-0.4,1.1-1.6V12.4z M82.5,18.6c0.1,1.8,1.4,2.7,2.7,2.7c0.8,0,1.7-0.3,2.3-1.2h2.8c-0.6,1.6-2.2,3.4-5.1,3.4
		c-3.5,0-5.5-2.6-5.5-5.7c0-3.2,2.2-5.6,5.4-5.6c3.3,0,5.4,2.6,5.3,6.4H82.5z M82.5,16.7h5.1c-0.1-1.8-1.3-2.5-2.5-2.5
		C84.1,14.2,82.7,14.9,82.5,16.7z M102.1,16.1h-2.6c-0.2-1-1.2-1.8-2.2-1.8c-1.4,0-2.6,1.2-2.6,3.5c0,2.3,1.1,3.5,2.6,3.5
		c0.9,0,2-0.5,2.3-1.8h2.6c-0.6,2.9-2.9,3.9-5.1,3.9c-3.2,0-5.3-2.4-5.3-5.6c0-3.3,2.2-5.6,5.4-5.6C99.4,12.2,101.7,13.4,102.1,16.1
		z M104.2,9.5h2.8v2.9h2.2v1.9h-2.2v5.6c0,1.1,0.4,1.3,1.4,1.3h0.8v2h-2c-2.5,0-2.9-0.8-2.9-2.9v-6h-1.5v-1.9h1.5V9.5z M119.2,15.8
		l-5-7.1h3.4l3.3,4.7l3.3-4.7h3.2l-5,6.9l5.3,7.6h-3.4l-3.6-5.1l-3.7,5.1h-3.2L119.2,15.8z"/>
</g>
</svg>
