<svg width="20" height="20" viewBox="0 0 20 20" fill="none" xmlns="http://www.w3.org/2000/svg">
<path d="M16.6667 3.33398H3.33333C2.8731 3.33398 2.5 3.70708 2.5 4.16732V15.834C2.5 16.2942 2.8731 16.6673 3.33333 16.6673H16.6667C17.1269 16.6673 17.5 16.2942 17.5 15.834V4.16732C17.5 3.70708 17.1269 3.33398 16.6667 3.33398Z" stroke="#19110B" stroke-linecap="round" stroke-linejoin="round"/>
<path d="M2.5 14.1667L6.85832 9.08202C7.19395 8.69046 7.80106 8.69467 8.13122 9.09086L11.0825 12.6324C11.3962 13.0088 11.9654 13.0346 12.3119 12.6881L13.5083 11.4918C13.8595 11.1406 14.438 11.1726 14.7483 11.5604L17.5 15.0001" stroke="#19110B" stroke-linecap="round" stroke-linejoin="round"/>
<path d="M11.668 7.49935C11.668 7.03911 12.0411 6.66602 12.5013 6.66602C12.9615 6.66602 13.3346 7.03911 13.3346 7.49935C13.3346 7.95959 12.9615 8.33268 12.5013 8.33268C12.0411 8.33268 11.668 7.95959 11.668 7.49935Z" stroke="#19110B" stroke-linecap="round" stroke-linejoin="round"/>
</svg>
