<svg
    xmlns="http://www.w3.org/2000/svg"
    width="40"
    height="40"
    viewBox="0 0 40 40"
    fill="none"
>
    <g opacity="0.8">
        <path
            d="M17.75 14H9.5V16.25H16.2112L17.75 14Z"
            fill="#A7B9EC"
        />
        <path d="M11 26H19.25V23.75H12.5444" fill="#A7B9EC" />
        <path
            d="M23.7525 21.0266H29.9843V18.9734H23.7525V16.0608H21.4023V24.3954C21.4023 24.8745 21.554 25.2623 21.8648 25.5589C22.1756 25.8555 22.5699 26 23.055 26H30.4998V23.9468H23.7525V21.0342V21.0266Z"
            fill="#A7B9EC"
        />
        <path
            d="M30.4928 14.009H25.9531V16.0397H30.4928V14.009Z"
            fill="#A7B9EC"
        />
        <path
            d="M9.5 26C9.5 25.2395 9.7395 24.5019 10.1876 23.8859L17.4113 14H19.25C19.25 14.7605 19.0105 15.4981 18.5547 16.1065L11.2924 26H9.5Z"
            fill="url(#paint0_linear_3528_265064)"
        />
    </g>
    <defs>
        <linearGradient
            id="paint0_linear_3528_265064"
            x1="14.1266"
            y1="14"
            x2="9.6494"
            y2="29.9505"
            gradientUnits="userSpaceOnUse"
        >
            <stop stop-color="#00FF7B" />
            <stop offset="1" stop-color="#004DFF" />
        </linearGradient>
    </defs>
</svg>