<svg width="24" height="24" viewBox="0 0 24 24" fill="none" xmlns="http://www.w3.org/2000/svg">
      <path fill-rule="evenodd" clip-rule="evenodd" d="M3 2.5C2.72386 2.5 2.5 2.72386 2.5 3C2.5 3.27614 2.72386 3.5 3 3.5C3.41251 3.5 3.68865 3.60169 3.8789 3.72853C4.07228 3.85745 4.20744 4.03292 4.30279 4.22361C4.39911 4.41625 4.44976 4.61495 4.47555 4.7697C4.48825 4.84589 4.49441 4.90829 4.49736 4.94969C4.49884 4.9703 4.4995 4.98544 4.49979 4.9942L4.5 5.00233L4.5 5.00174C4.5001 5.0287 4.50237 5.0556 4.5068 5.0822L6.22827 15.411C6.42918 16.6165 7.47216 17.5 8.69425 17.5H19C19.2761 17.5 19.5 17.2761 19.5 17C19.5 16.7239 19.2761 16.5 19 16.5H8.69425C7.961 16.5 7.33521 15.9699 7.21466 15.2466L7.04247 14.2134C7.39149 14.397 7.7878 14.5 8.20511 14.5H17.614C18.6561 14.5 19.5889 13.8536 19.9549 12.8778L21.4549 8.87781C22.0677 7.24343 20.8595 5.5 19.114 5.5H7.56426C6.82971 5.5 6.17837 5.81376 5.72473 6.30701L5.49892 4.95215C5.49818 4.9327 5.49693 4.90791 5.49482 4.87844C5.48997 4.81046 5.4805 4.71661 5.46195 4.6053C5.42524 4.38505 5.35089 4.08375 5.19721 3.77639C5.04256 3.46708 4.80272 3.14255 4.4336 2.89647C4.06135 2.64831 3.58749 2.5 3 2.5ZM5 5C4.5 5 4.5 5.00024 4.5 5.00047L4.5 5H5ZM6.08315 8.23729C5.93712 7.32582 6.64117 6.5 7.56426 6.5H19.114C20.1613 6.5 20.8863 7.54606 20.5185 8.52668L19.0185 12.5267C18.799 13.1121 18.2393 13.5 17.614 13.5H8.20511C7.46829 13.5 6.84056 12.9648 6.724 12.2373L6.08315 8.23729ZM8.5 20C8.77614 20 9 19.7761 9 19.5C9 19.2239 8.77614 19 8.5 19C8.22386 19 8 19.2239 8 19.5C8 19.7761 8.22386 20 8.5 20ZM8.5 21C9.32843 21 10 20.3284 10 19.5C10 18.6716 9.32843 18 8.5 18C7.67157 18 7 18.6716 7 19.5C7 20.3284 7.67157 21 8.5 21ZM18 19.5C18 19.7761 17.7761 20 17.5 20C17.2239 20 17 19.7761 17 19.5C17 19.2239 17.2239 19 17.5 19C17.7761 19 18 19.2239 18 19.5ZM19 19.5C19 20.3284 18.3284 21 17.5 21C16.6716 21 16 20.3284 16 19.5C16 18.6716 16.6716 18 17.5 18C18.3284 18 19 18.6716 19 19.5Z" fill="#19110B"/>
    </svg>