<svg width="24" height="24" viewBox="0 0 24 24" fill="none" xmlns="http://www.w3.org/2000/svg">
      <path d="M14 3.24258V6.96007C14 7.46411 14 7.71613 14.0981 7.90866C14.1844 8.078 14.3221 8.21568 14.4914 8.30197C14.6839 8.40006 14.936 8.40006 15.44 8.40006H19.1575M19.4 10.1894V16.68C19.4 18.1921 19.4 18.9482 19.1057 19.5258C18.8469 20.0338 18.4338 20.4469 17.9258 20.7057C17.3482 21 16.5921 21 15.08 21H9.32C7.80786 21 7.05179 21 6.47423 20.7057C5.96619 20.4469 5.55314 20.0338 5.29428 19.5258C5 18.9482 5 18.1921 5 16.68V7.32C5 5.80786 5 5.05179 5.29428 4.47423C5.55314 3.96619 5.96619 3.55314 6.47423 3.29428C7.05179 3 7.80786 3 9.32 3H12.2106C12.871 3 13.2012 3 13.5119 3.0746C13.7874 3.14074 14.0508 3.24983 14.2924 3.39787C14.5648 3.56484 14.7983 3.79833 15.2653 4.2653L18.1347 7.1347C18.6017 7.60167 18.8352 7.83516 19.0021 8.10763C19.1502 8.34921 19.2593 8.61258 19.3254 8.88807C19.4 9.19881 19.4 9.52901 19.4 10.1894Z" stroke="#19110B" stroke-linecap="round" stroke-linejoin="round"/>
      <path d="M14.0016 16.5004H8.60156M15.8016 12.9004H8.60156" stroke="#19110B" stroke-linecap="round" stroke-linejoin="round"/>
      <path d="M14 6.95967V3.24219L14.2924 3.39748C14.5648 3.56445 14.7983 3.79794 15.2653 4.26491L18.1347 7.13431C18.6017 7.60128 18.8352 7.83477 19.0021 8.10724L19.1575 8.39967H15.44C14.936 8.39967 14.6839 8.39967 14.4914 8.30158C14.3221 8.21529 14.1844 8.07761 14.0981 7.90826C14 7.71574 14 7.46372 14 6.95967Z" stroke="#19110B" stroke-linecap="round" stroke-linejoin="round"/>
    </svg>