<svg width="24" height="24" viewBox="0 0 24 24" fill="none" xmlns="http://www.w3.org/2000/svg">
      <path d="M16.4677 6.46769L19.3907 9.4322C20.4501 10.5067 20.4448 12.2354 19.3786 13.3064L13.1758 19.5352C12.7081 20.0049 11.9947 20.0523 11.4806 19.5382C10.9665 19.0241 11.4394 18.0447 11.4394 18.0447L9.91025 19.5739C9.18793 20.2962 7.42875 18.7215 8.25865 17.8916C7.47485 18.6754 5.85004 17.112 6.68763 16.2744C5.6733 17.2888 3.99292 15.593 4.95346 14.6325C5.91399 13.6719 10.1518 9.47744 10.1518 9.47744C10.3462 9.28456 10.6598 9.28495 10.8532 9.47838L12.6705 11.2957C13.1343 11.7595 13.8899 11.7488 14.3419 11.2722C14.7804 10.8097 14.7712 10.0826 14.3212 9.63256L12.1373 7.44866L13.1275 6.45846C14.0518 5.53412 15.5511 5.53832 16.4676 6.46776L16.4677 6.46769Z" stroke="#19110B" stroke-miterlimit="10"/>
      <path d="M12.1367 7.44924L10.8545 6.16699C10.0201 5.33263 8.66638 5.33362 7.83079 6.16921L4.06771 9.93229C3.40817 10.5918 3.28389 11.5836 3.6952 12.3672C4.07699 13.0944 4.2792 13.2553 4.56175 14.0267L4.77618 14.8098" stroke="#19110B" stroke-miterlimit="10"/>
      <path d="M6.46024 16.4929L10.6328 12.3203" stroke="#19110B" stroke-miterlimit="10" stroke-linecap="round"/>
      <path d="M8.05789 18.0925L12.2305 13.9199" stroke="#19110B" stroke-miterlimit="10" stroke-linecap="round"/>
      <path d="M10.598 18.8863L13.8945 15.582" stroke="#19110B" stroke-miterlimit="10" stroke-linecap="round"/>
    </svg>
