<svg width="24" height="24" viewBox="0 0 24 24" fill="none" xmlns="http://www.w3.org/2000/svg">
      <path fill-rule="evenodd" clip-rule="evenodd" d="M16.588 4.12913C16.4686 3.13508 15.3175 2.64341 14.5168 3.24444L12.2619 4.93699C12.1533 5.01855 12.0033 5.0169 11.8965 4.93297L9.67937 3.19125C8.89206 2.57276 7.73049 3.03901 7.58929 4.03019L7.19165 6.82146C7.17249 6.95597 7.06531 7.06081 6.93042 7.07701L4.13108 7.41318C3.13704 7.53255 2.64537 8.68359 3.24639 9.48431L4.93894 11.7392C5.0205 11.8479 5.01886 11.9978 4.93492 12.1046L3.1932 14.3218C2.57472 15.1091 3.04096 16.2706 4.03215 16.4118L6.82341 16.8095C6.95792 16.8286 7.06276 16.9358 7.07896 17.0707L7.41513 19.87C7.5345 20.8641 8.68555 21.3558 9.48626 20.7547L11.7412 19.0622C11.8498 18.9806 11.9997 18.9823 12.1066 19.0662L14.3237 20.8079C15.111 21.4264 16.2726 20.9602 16.4138 19.969L16.8114 17.1777C16.8306 17.0432 16.9378 16.9384 17.0727 16.9222L19.872 16.586C20.866 16.4666 21.3577 15.3156 20.7567 14.5149L19.4393 12.7598C19.2855 12.5549 19.0018 12.4994 18.7822 12.6312C18.5279 12.7838 18.4615 13.1229 18.6395 13.3601L19.9569 15.1152C20.0956 15.3 19.9822 15.5656 19.7528 15.5931L16.9534 15.9293C16.3689 15.9995 15.9045 16.4538 15.8214 17.0367L15.4238 19.8279C15.3912 20.0567 15.1231 20.1643 14.9415 20.0216L12.7243 18.2798C12.2613 17.9161 11.6117 17.909 11.1408 18.2624L8.88595 19.955C8.70117 20.0937 8.43554 19.9802 8.40799 19.7508L8.07183 16.9515C8.00163 16.3669 7.54732 15.9025 6.96444 15.8195L4.17318 15.4218C3.94444 15.3893 3.83685 15.1212 3.97958 14.9395L5.7213 12.7224C6.085 12.2594 6.09215 11.6098 5.73871 11.1389L4.04616 8.884C3.90746 8.69921 4.02092 8.43359 4.25032 8.40604L7.04965 8.06987C7.63421 7.99967 8.09862 7.54537 8.18165 6.96249L8.57929 4.17123C8.61188 3.94249 8.87993 3.8349 9.06162 3.97762L11.2788 5.71934C11.7417 6.08305 12.3914 6.0902 12.8622 5.73675L15.1171 4.0442C15.3019 3.9055 15.5675 4.01897 15.5951 4.24836L15.7649 5.66212C15.8078 6.0193 16.2025 6.21566 16.5132 6.03439C16.6854 5.93395 16.7815 5.74082 16.7577 5.54289L16.588 4.12913Z" fill="#19110B"/>
      <path d="M9 10L12 13.5L21 6" stroke="#19110B" stroke-linecap="round" stroke-linejoin="round"/>
    </svg>