<svg width="24" height="24" viewBox="0 0 24 24" fill="none" xmlns="http://www.w3.org/2000/svg">
      <path d="M17.7095 5.04291C16.1 3.72197 14.0822 3 12 3C12 3 12 3 12 3V3C12 3 12 3 12 3C14.0822 3 16.1 3.72197 17.7095 5.04291C19.3191 6.36384 20.4209 8.202 20.8271 10.2442C21.2333 12.2864 20.9188 14.4062 19.9373 16.2426C18.9557 18.0789 17.3678 19.5181 15.4441 20.3149C13.5204 21.1117 11.38 21.2169 9.38744 20.6125C7.3949 20.008 5.67358 18.7314 4.51677 17.0001C3.35997 15.2688 2.83925 13.19 3.04334 11.1178C3.24743 9.04567 4.16371 7.10837 5.63604 5.63604C4.1637 7.10837 3.24743 9.04567 3.04334 11.1178C2.83925 13.19 3.35997 15.2688 4.51677 17.0001C5.67358 18.7314 7.3949 20.008 9.38744 20.6125C11.38 21.2169 13.5204 21.1117 15.4441 20.3149C17.3678 19.5181 18.9557 18.0789 19.9373 16.2426C20.9188 14.4062 21.2333 12.2864 20.8271 10.2442C20.4209 8.202 19.3191 6.36384 17.7095 5.04291Z" stroke="#19110B" stroke-linejoin="round"/>
      <path d="M11.5 7C11.5 7.27614 11.7239 7.5 12 7.5C12.2761 7.5 12.5 7.27614 12.5 7H11.5ZM12.5 7V3H11.5V7H12.5Z" fill="#19110B"/>
      <path d="M12.5957 12.5957C12.4054 12.786 12.0931 12.773 11.9192 12.5675L8.3531 8.35302L12.5676 11.9191C12.7731 12.093 12.7861 12.4053 12.5957 12.5957V12.5957Z" stroke="#19110B" stroke-linejoin="round"/>
    </svg>